Coordinates
version=1
nRows=27
nColumns=38
inDegrees=no

Units are S.I. units (second, meters, Newtons, ...)
If the header above contains a line with 'inDegrees', this indicates whether rotational values are in degrees (yes) or radians (no).

endheader
time	pelvis_tilt	pelvis_list	pelvis_rotation	pelvis_tx	pelvis_ty	pelvis_tz	hip_flexion_r	hip_adduction_r	hip_rotation_r	knee_angle_r	ankle_angle_r	subtalar_angle_r	mtp_angle_r	hip_flexion_l	hip_adduction_l	hip_rotation_l	knee_angle_l	ankle_angle_l	subtalar_angle_l	mtp_angle_l	lumbar_extension	lumbar_bending	lumbar_rotation	arm_flex_r	arm_add_r	arm_rot_r	elbow_flex_r	pro_sup_r	wrist_flex_r	wrist_dev_r	arm_flex_l	arm_add_l	arm_rot_l	elbow_flex_l	pro_sup_l	wrist_flex_l	wrist_dev_l
2.34	-0.80007	1.30051	2.407	0.577398	1.35359	0.997637	0.375854	-0.292506	0.0695674	0.783702	0.013276	0	0	0.624635	0.111358	-0.115063	0.509361	-0.20725	0	0	-0.0334556	-0.223948	0.212384	0.0171387	-0.583162	0.8032	0.934692	0.522765	0	0	0.0873006	-0.471352	0.634327	0.83673	0.837843	0	0
2.35	-0.780901	1.29974	2.38675	0.575862	1.36249	0.99599	0.371758	-0.292062	0.0636205	0.787376	0.0172276	0	0	0.624162	0.108606	-0.102936	0.457173	-0.208177	0	0	-0.0295268	-0.220732	0.212358	0.017019	-0.584718	0.802861	0.93627	0.524061	0	0	0.0832403	-0.470827	0.629379	0.839484	0.840431	0	0
2.36	-0.765937	1.2993	2.36911	0.574471	1.37145	0.994379	0.367845	-0.291852	0.0590767	0.7924	0.0207109	0	0	0.621579	0.104487	-0.0955447	0.40761	-0.20378	0	0	-0.0263592	-0.217992	0.213669	0.0171493	-0.586543	0.803269	0.93842	0.527331	0	0	0.07896	-0.470595	0.624026	0.843297	0.842181	0	0
2.37	-0.75355	1.29914	2.3534	0.573134	1.38048	0.992773	0.363883	-0.291922	0.0550595	0.798418	0.0243008	0	0	0.617694	0.0999611	-0.0908573	0.361247	-0.195929	0	0	-0.0252385	-0.215893	0.218154	0.0101603	-0.587767	0.790157	0.943649	0.544218	0	0	0.0770117	-0.470014	0.619835	0.847809	0.846263	0	0
2.38	-0.739698	1.29895	2.33748	0.571503	1.38997	0.991116	0.358905	-0.292642	0.048185	0.804008	0.0269031	0	0	0.614851	0.0955688	-0.0883321	0.322085	-0.183829	0	0	-0.0204618	-0.212925	0.218874	0.00946897	-0.589276	0.791813	0.945334	0.543038	0	0	0.0714093	-0.470803	0.616119	0.851718	0.845592	0	0
2.39	-0.728407	1.29907	2.32392	0.569811	1.39971	0.989503	0.353072	-0.29351	0.0416854	0.809795	0.0291974	0	0	0.611283	0.0913557	-0.0863187	0.288057	-0.171303	0	0	-0.0163512	-0.210291	0.220167	0.00682269	-0.59029	0.790405	0.947489	0.54391	0	0	0.065573	-0.471662	0.611938	0.855687	0.846986	0	0
2.4	-0.719663	1.29949	2.31213	0.5682	1.40953	0.987907	0.347021	-0.293822	0.0377596	0.815842	0.0310572	0	0	0.607546	0.0869986	-0.0853984	0.260432	-0.160277	0	0	-0.0128787	-0.208074	0.222313	0.00334424	-0.590986	0.787327	0.949649	0.546196	0	0	0.0599476	-0.472861	0.608137	0.859817	0.848191	0	0
2.41	-0.710371	1.2999	2.29905	0.566774	1.41925	0.986285	0.342244	-0.292868	0.0375327	0.822686	0.0327896	0	0	0.606577	0.0811025	-0.0880688	0.243808	-0.151587	0	0	-0.00929925	-0.206	0.225431	-0.000256601	-0.591304	0.783998	0.95176	0.549355	0	0	0.0548693	-0.474347	0.604841	0.863926	0.848562	0	0
2.42	-0.714172	1.30191	2.29725	0.565453	1.42942	0.985115	0.333813	-0.29386	0.0373622	0.829859	0.0343799	0	0	0.594971	0.0794311	-0.0834373	0.218843	-0.147766	0	0	-0.00919379	-0.205641	0.230109	-0.00451355	-0.591378	0.7794	0.954277	0.553195	0	0	0.0498049	-0.475994	0.601233	0.868554	0.849467	0	0
2.43	-0.716393	1.30426	2.29643	0.563858	1.44008	0.984034	0.323513	-0.295583	0.0324612	0.836487	0.0349156	0	0	0.585631	0.0782823	-0.0781925	0.206146	-0.14925	0	0	-0.00821253	-0.204881	0.232782	-0.0101647	-0.590246	0.77428	0.955855	0.556133	0	0	0.0438505	-0.478214	0.598182	0.873102	0.850658	0	0
2.44	-0.722554	1.3077	2.29983	0.562124	1.45106	0.983178	0.310497	-0.296977	0.0278151	0.841628	0.0346033	0	0	0.574595	0.0785493	-0.0696383	0.200078	-0.157314	0	0	-0.00857717	-0.204013	0.23487	-0.0160464	-0.589139	0.769247	0.957459	0.560598	0	0	0.0371129	-0.480282	0.59417	0.87802	0.851703	0	0
2.45	-0.763578	1.31797	2.34661	0.561065	1.46407	0.982035	0.220712	-0.323501	-0.101446	0.762933	0.0510501	0	0	0.551794	0.0823449	-0.0621819	0.205317	-0.164158	0	0	-0.0194586	-0.207916	0.231132	-0.0297434	-0.586201	0.75556	0.967476	0.564796	0	0	0.0300877	-0.494371	0.596614	0.89687	0.849109	0	0
2.46	-0.746297	1.31451	2.31535	0.558539	1.4733	0.981573	0.284846	-0.301009	0.0249893	0.853646	0.0332095	0	0	0.552534	0.0823351	-0.0522475	0.20791	-0.180271	0	0	-0.011458	-0.204283	0.242683	-0.032426	-0.586666	0.749589	0.963455	0.567036	0	0	0.024005	-0.484385	0.586372	0.889576	0.854937	0	0
2.47	-0.759375	1.31743	2.32335	0.556665	1.48458	0.980666	0.274554	-0.303894	0.0251862	0.862994	0.0278529	0	0	0.542828	0.084942	-0.0467528	0.216347	-0.188762	0	0	-0.0132326	-0.20487	0.249635	-0.0458164	-0.584908	0.731789	0.968266	0.584173	0	0	0.0182176	-0.485212	0.581293	0.894911	0.864393	0	0
2.48	-0.771183	1.32072	2.33096	0.554804	1.49591	0.979794	0.26423	-0.306317	0.0248528	0.8729	0.0240816	0	0	0.535091	0.0874553	-0.0409033	0.225149	-0.196345	0	0	-0.0125753	-0.204651	0.252319	-0.0506003	-0.584004	0.731168	0.969383	0.585544	0	0	0.00908505	-0.487739	0.576236	0.900472	0.866	0	0
2.49	-0.79395	1.32467	2.34767	0.552934	1.50755	0.979273	0.252634	-0.31099	0.024716	0.884019	0.0184218	0	0	0.525188	0.0903193	-0.0434594	0.231726	-0.209995	0	0	-0.014237	-0.205773	0.256515	-0.0564106	-0.58304	0.728695	0.97088	0.587836	0	0	-0.000551566	-0.489356	0.569632	0.905683	0.86883	0	0
2.5	-0.808349	1.3266	2.35769	0.551096	1.51877	0.978625	0.246759	-0.314956	0.026875	0.898786	0.0103597	0	0	0.520713	0.0927404	-0.0401747	0.241924	-0.228769	0	0	-0.0137821	-0.207435	0.259394	-0.0622774	-0.5805	0.724702	0.971467	0.591168	0	0	-0.00995007	-0.491125	0.561969	0.910677	0.872103	0	0
2.51	-0.830645	1.32805	2.3743	0.549168	1.53013	0.97831	0.242123	-0.321332	0.030356	0.916175	-0.000695874	0	0	0.512833	0.0957656	-0.0422111	0.249972	-0.249465	0	0	-0.014368	-0.210522	0.262866	-0.0677612	-0.577999	0.72075	0.971904	0.595075	0	0	-0.0197811	-0.49226	0.553279	0.915372	0.87628	0	0
2.52	-0.843335	1.32787	2.38401	0.546966	1.54137	0.977955	0.241201	-0.327794	0.032455	0.935452	-0.0143696	0	0	0.507803	0.0990312	-0.0413375	0.258927	-0.268946	0	0	-0.0123715	-0.213137	0.263917	-0.0734222	-0.574504	0.716612	0.971368	0.600762	0	0	-0.0296062	-0.493466	0.545095	0.919154	0.881624	0	0
2.53	-0.8553	1.32702	2.39303	0.544595	1.55238	0.977706	0.243408	-0.335113	0.0358769	0.95753	-0.0322695	0	0	0.504176	0.101825	-0.0435884	0.270207	-0.286154	0	0	-0.00992586	-0.215806	0.264813	-0.0783528	-0.571493	0.713096	0.970677	0.609348	0	0	-0.0391103	-0.49392	0.536741	0.922501	0.887155	0	0
2.54	-0.865031	1.32535	2.39942	0.542162	1.56294	0.977572	0.250342	-0.342435	0.0424673	0.983337	-0.0532226	0	0	0.503883	0.103333	-0.0491975	0.287369	-0.295826	0	0	-0.0074644	-0.21848	0.266141	-0.0826699	-0.569029	0.709128	0.970007	0.618198	0	0	-0.0469734	-0.49375	0.529717	0.925089	0.891513	0	0
2.55	-0.870183	1.32259	2.40342	0.539592	1.57334	0.977649	0.260747	-0.350063	0.0477436	1.01199	-0.0795064	0	0	0.508354	0.104446	-0.0557152	0.313284	-0.296497	0	0	-0.00402453	-0.221416	0.265822	-0.087268	-0.565347	0.704266	0.968494	0.626622	0	0	-0.0532827	-0.493843	0.52505	0.926127	0.895128	0	0
2.56	-0.879222	1.31981	2.41138	0.537192	1.58351	0.978211	0.273673	-0.357713	0.0544678	1.04386	-0.111207	0	0	0.51432	0.105431	-0.0665814	0.345214	-0.289801	0	0	-0.00176794	-0.225209	0.265677	-0.0911795	-0.561157	0.699237	0.966453	0.634015	0	0	-0.057004	-0.4942	0.52366	0.925257	0.896463	0	0
2.57	-0.892525	1.31759	2.42318	0.535067	1.5934	0.979266	0.288289	-0.364495	0.0629648	1.07768	-0.148084	0	0	0.519352	0.106317	-0.081465	0.378022	-0.280146	0	0	-0.00286578	-0.229585	0.270721	-0.102041	-0.55556	0.680665	0.966326	0.653822	0	0	-0.0518229	-0.495117	0.533536	0.92135	0.893861	0	0
2.58	-0.90849	1.31614	2.43757	0.533185	1.60304	0.980782	0.303618	-0.369999	0.072482	1.1123	-0.182638	0	0	0.519153	0.108172	-0.0946923	0.402448	-0.273713	0	0	-0.00421426	-0.233847	0.269985	-0.10065	-0.551764	0.681394	0.961885	0.653901	0	0	-0.0518128	-0.496007	0.535818	0.91814	0.891061	0	0
2.59	-0.92072	1.31026	2.44709	0.531645	1.61213	0.981273	0.223107	-0.380845	0.0118556	1.00876	-0.123717	0	0	0.520328	0.112898	-0.108756	0.422461	-0.263931	0	0	-0.00223942	-0.241595	0.272843	-0.102537	-0.548762	0.678816	0.961755	0.658718	0	0	-0.049737	-0.500334	0.542488	0.918816	0.885268	0	0
2.6	-0.936711	1.30979	2.46033	0.529975	1.62123	0.983248	0.237277	-0.38543	0.0211515	1.0429	-0.144751	0	0	0.509901	0.116203	-0.11907	0.429471	-0.257133	0	0	-0.00667266	-0.244795	0.273908	-0.100385	-0.547021	0.680631	0.958723	0.664915	0	0	-0.0458408	-0.499958	0.547899	0.913496	0.88035	0	0
